# This file uses centimeters as units for non-parametric coordinates.

mtllib trashbag1.mtl
g default
v 0.693104 0.000000 -0.503570
v 0.141501 0.000000 -0.397750
v -0.264742 0.000000 -0.814793
v -0.693104 0.000000 -0.503570
v -0.856724 0.000000 0.000000
v -0.693104 0.000000 0.503570
v -0.367863 0.000000 0.527564
v 0.161622 0.000000 0.814793
v 0.693104 0.000000 0.503570
v 0.856724 0.000000 0.000000
v 0.829892 0.096576 -0.542954
v 0.065463 0.096576 -0.688796
v -0.285448 0.096576 -0.878518
v -1.038968 0.096576 -0.542954
v -1.285758 0.039335 0.000000
v -0.883785 0.000000 0.542954
v -0.432833 0.080561 0.663437
v 0.516857 0.096576 1.226861
v 0.978721 0.096576 0.891297
v 1.176730 0.096576 0.280053
v 0.856063 0.417857 -0.807665
v 0.104920 0.412215 -0.967129
v -0.328193 0.458123 -0.925641
v -0.617961 0.462896 -0.581508
v -1.248021 0.277676 -0.093242
v -1.062283 0.192502 0.597719
v -0.314239 0.412215 0.998576
v 0.112968 0.552575 0.967129
v 0.926615 0.412215 1.161562
v 1.068172 0.412215 0.365953
v 0.847902 0.838029 -0.616037
v 0.323869 0.690983 -0.996768
v -0.330184 0.690983 -0.984796
v -0.731259 0.690983 -0.438464
v -1.253436 0.601377 -0.345400
v -1.097511 0.657849 0.648593
v -0.323870 0.674067 1.119879
v -0.056647 0.750006 0.936265
v 0.900607 0.689325 0.855089
v 1.146263 0.690983 0.365953
v 0.714552 1.066826 -0.609828
v 0.272935 1.066826 -0.930681
v -0.222309 1.095749 -0.817940
v -0.528585 1.066826 -0.404527
v -1.238436 1.066826 -0.090675
v -1.094060 1.116003 0.448218
v -0.272935 1.319996 0.765210
v 0.417354 1.037582 0.741189
v 0.679497 0.914004 0.543108
v 1.055836 1.066826 0.275279
v 0.587175 1.323921 -0.470268
v 0.224281 1.323921 -0.733926
v -0.212814 1.334557 -0.622325
v -0.411747 1.323921 -0.222050
v -0.936752 1.421128 -0.043660
v -0.836018 1.435334 0.515519
v -0.224281 1.516596 0.232540
v 0.234434 1.314045 0.543471
v 0.379519 1.282513 0.131623
v 0.725788 1.435334 -0.043661
v 0.314783 1.401226 -0.306218
v 0.167875 1.639710 -0.527362
v -0.245998 1.534526 -0.527362
v -0.416458 1.584264 -0.155121
v -0.543254 1.776779 -0.010697
v -0.476658 1.811793 0.344155
v -0.167875 1.750731 0.172515
v 0.167875 1.529112 0.364547
v 0.254589 1.528893 0.145917
v 0.543254 1.571699 -0.010697
v 0.073534 1.572524 -0.232250
v 0.054263 1.776816 -0.369178
v -0.116478 1.855191 -0.369178
v -0.197075 1.734853 -0.030089
v -0.376929 1.894037 0.074540
v -0.304942 1.999662 0.210856
v -0.151944 1.912338 0.189263
v 0.145309 1.718299 0.296425
v 0.136959 1.654931 0.210856
v 0.376929 1.650110 -0.010697
v -0.027548 1.712847 -0.164483
v -0.108880 1.877304 -0.193590
v -0.145043 1.948882 -0.193590
v -0.155578 1.992990 -0.029487
v -0.192305 2.016690 0.028741
v -0.155578 1.991666 0.102337
v -0.059426 1.964784 0.172196
v 0.059426 1.975867 0.172196
v 0.155578 1.851282 0.087366
v 0.192305 1.809293 -0.010697
v 0.000000 0.000000 0.000000
v -0.000000 1.982915 0.018641
v -0.249287 1.981223 0.194595
v -0.228939 1.986819 0.201763
v -0.222925 1.971717 0.183255
v -0.221196 1.985382 0.174185
v -0.388494 1.984812 0.243253
v -0.155791 1.851109 0.256745
v -0.052234 1.973906 0.164739
v -0.210610 2.024347 0.017770
v -0.335918 2.061029 0.185022
v -0.212217 2.003366 0.276704
v -0.056703 2.017608 0.183349
v -0.267429 2.103218 0.073297
v -0.328132 2.120938 0.206229
v -0.254539 2.107526 0.283331
v -0.160104 2.143512 0.176129
v -0.230707 2.152516 0.159778
v -0.169989 2.082376 0.252065
v -0.086698 2.105841 0.174836
v -0.159166 2.170201 0.193956
v -0.214397 2.112810 0.252168
v -0.107365 2.170882 0.411988
v -0.060591 2.390525 0.269121
v -0.141452 2.438455 0.381370
v -0.207566 2.270324 0.448071
v -0.100571 2.278855 0.539323
v -0.052491 2.376798 0.482066
v -0.132375 2.425534 0.448774
v -0.150291 2.364501 0.480818
vt 0.000000 0.100000
vt 0.100000 0.100000
vt 0.200000 0.100000
vt 0.300000 0.100000
vt 0.400000 0.100000
vt 0.500000 0.100000
vt 0.600000 0.100000
vt 0.700000 0.100000
vt 0.800000 0.100000
vt 0.900000 0.100000
vt 1.000000 0.100000
vt 0.000000 0.200000
vt 0.100000 0.200000
vt 0.200000 0.200000
vt 0.300000 0.200000
vt 0.400000 0.200000
vt 0.500000 0.200000
vt 0.600000 0.200000
vt 0.700000 0.200000
vt 0.800000 0.200000
vt 0.900000 0.200000
vt 1.000000 0.200000
vt 0.000000 0.300000
vt 0.100000 0.300000
vt 0.200000 0.300000
vt 0.300000 0.300000
vt 0.400000 0.300000
vt 0.500000 0.300000
vt 0.600000 0.300000
vt 0.700000 0.300000
vt 0.800000 0.300000
vt 0.900000 0.300000
vt 1.000000 0.300000
vt 0.000000 0.400000
vt 0.100000 0.400000
vt 0.200000 0.400000
vt 0.300000 0.400000
vt 0.400000 0.400000
vt 0.500000 0.400000
vt 0.600000 0.400000
vt 0.700000 0.400000
vt 0.800000 0.400000
vt 0.900000 0.400000
vt 1.000000 0.400000
vt 0.000000 0.500000
vt 0.100000 0.500000
vt 0.200000 0.500000
vt 0.300000 0.500000
vt 0.400000 0.500000
vt 0.500000 0.500000
vt 0.600000 0.500000
vt 0.700000 0.500000
vt 0.800000 0.500000
vt 0.900000 0.500000
vt 1.000000 0.500000
vt 0.000000 0.600000
vt 0.100000 0.600000
vt 0.200000 0.600000
vt 0.300000 0.600000
vt 0.400000 0.600000
vt 0.500000 0.600000
vt 0.600000 0.600000
vt 0.700000 0.600000
vt 0.800000 0.600000
vt 0.900000 0.600000
vt 1.000000 0.600000
vt 0.000000 0.700000
vt 0.100000 0.700000
vt 0.200000 0.700000
vt 0.300000 0.700000
vt 0.400000 0.700000
vt 0.500000 0.700000
vt 0.600000 0.700000
vt 0.700000 0.700000
vt 0.800000 0.700000
vt 0.900000 0.700000
vt 1.000000 0.700000
vt 0.000000 0.800000
vt 0.100000 0.800000
vt 0.200000 0.800000
vt 0.300000 0.800000
vt 0.400000 0.800000
vt 0.500000 0.800000
vt 0.600000 0.800000
vt 0.700000 0.800000
vt 0.800000 0.800000
vt 0.900000 0.800000
vt 1.000000 0.800000
vt 0.000000 0.900000
vt 0.100000 0.900000
vt 0.200000 0.900000
vt 0.300000 0.900000
vt 0.400000 0.900000
vt 0.500000 0.900000
vt 0.600000 0.900000
vt 0.700000 0.900000
vt 0.800000 0.900000
vt 0.900000 0.900000
vt 1.000000 0.900000
vt 0.050000 0.000000
vt 0.150000 0.000000
vt 0.250000 0.000000
vt 0.350000 0.000000
vt 0.450000 0.000000
vt 0.550000 0.000000
vt 0.650000 0.000000
vt 0.750000 0.000000
vt 0.850000 0.000000
vt 0.950000 0.000000
vt 0.050000 1.000000
vt 0.150000 1.000000
vt 0.250000 1.000000
vt 0.350000 1.000000
vt 0.450000 1.000000
vt 0.550000 1.000000
vt 0.650000 1.000000
vt 0.750000 1.000000
vt 0.850000 1.000000
vt 0.950000 1.000000
vt 0.500000 0.800000
vt 0.600000 0.800000
vt 0.600000 0.900000
vt 0.500000 0.900000
vt 0.500000 0.800000
vt 0.600000 0.800000
vt 0.600000 0.900000
vt 0.500000 0.900000
vt 0.500000 0.800000
vt 0.600000 0.800000
vt 0.600000 0.900000
vt 0.500000 0.900000
vt 0.500000 0.800000
vt 0.600000 0.800000
vt 0.600000 0.900000
vt 0.500000 0.900000
vt 0.600000 0.800000
vt 0.600000 0.900000
vt 0.600000 0.900000
vt 0.600000 0.800000
vt 0.600000 0.800000
vt 0.600000 0.900000
vt 0.600000 0.900000
vt 0.600000 0.800000
vt 0.600000 0.800000
vt 0.600000 0.900000
vt 0.600000 0.900000
vt 0.600000 0.800000
vn 0.127815 -0.960885 -0.245689
vn 0.031190 -0.981272 -0.190083
vn 0.176976 -0.669268 -0.721637
vn 0.711991 -0.463077 -0.527854
vn 0.011637 -0.957721 -0.287463
vn -0.231361 -0.341574 -0.910933
vn -0.115086 -0.980432 -0.159712
vn -0.696956 -0.323016 -0.640245
vn -0.068747 -0.996892 -0.038482
vn -0.772775 -0.631935 -0.058963
vn -0.019580 -0.996337 0.083242
vn -0.328073 -0.799449 0.503240
vn -0.070973 -0.983742 0.164971
vn -0.235589 -0.622872 0.746009
vn -0.041388 -0.981455 0.187169
vn 0.009881 -0.612536 0.790381
vn 0.108014 -0.991287 0.075382
vn 0.635816 -0.619627 0.460218
vn 0.198731 -0.979346 -0.037240
vn 0.900561 -0.430781 -0.058463
vn 0.148122 -0.376667 -0.914430
vn 0.697678 -0.223651 -0.680607
vn -0.384409 -0.082304 -0.919487
vn -0.624479 0.064607 -0.778365
vn -0.989034 0.074807 -0.127340
vn -0.756070 -0.249422 0.605101
vn -0.325093 -0.256563 0.910214
vn -0.101072 0.175857 0.979213
vn 0.447458 0.273111 0.851582
vn 0.998064 0.040272 -0.047393
vn 0.249592 0.166675 -0.953899
vn 0.871628 0.141471 -0.469309
vn -0.469537 0.207087 -0.858283
vn -0.507089 0.213975 -0.834911
vn -0.865656 0.073134 -0.495269
vn -0.741867 0.138193 0.656152
vn -0.286677 0.215109 0.933565
vn 0.243304 0.381172 0.891914
vn 0.533794 0.500788 0.681377
vn 0.976041 0.217569 0.002664
vn 0.184447 0.420208 -0.888485
vn 0.746464 0.405124 -0.527889
vn -0.447797 0.468172 -0.761770
vn -0.536081 0.472297 -0.699680
vn -0.894431 0.351473 -0.276513
vn -0.749145 0.404680 0.524419
vn -0.132034 0.591051 0.795755
vn 0.385911 0.661516 0.643016
vn 0.366364 0.704422 0.607920
vn 0.737298 0.653209 0.172365
vn 0.195955 0.659759 -0.725479
vn 0.646111 0.626230 -0.436321
vn -0.501530 0.514594 -0.695457
vn -0.528477 0.419940 -0.737809
vn -0.630566 0.679754 -0.374594
vn -0.467724 0.745310 0.475128
vn 0.108091 0.540911 0.834105
vn 0.398288 0.795045 0.457461
vn 0.399576 0.682733 0.611731
vn 0.585377 0.804434 0.101095
vn 0.334882 0.760270 -0.556635
vn 0.463190 0.808810 -0.362328
vn -0.593311 0.464961 -0.657110
vn -0.527299 0.464509 -0.711468
vn -0.584239 0.732973 -0.348448
vn -0.296749 0.666671 0.683733
vn 0.104289 0.172044 0.979554
vn 0.224614 0.546198 0.806979
vn 0.688372 0.410644 0.597926
vn 0.488907 0.864729 0.114953
vn 0.505111 0.790862 -0.345542
vn 0.655702 0.712275 -0.250438
vn -0.492803 0.733942 -0.467412
vn -0.632396 0.598504 -0.491801
vn -0.468068 0.745290 -0.474822
vn -0.196046 0.753348 0.627720
vn 0.086716 0.182120 0.979445
vn 0.197676 0.312692 0.929057
vn 0.827697 0.417677 0.374786
vn 0.532714 0.785673 -0.314536
vn 0.804278 0.579567 -0.131299
vn 0.728206 0.591605 -0.346005
vn -0.875840 0.390854 -0.283087
vn -0.697716 0.410745 -0.586926
vn -0.460744 0.600577 -0.653470
vn -0.144683 0.988832 0.035746
vn -0.752657 0.569691 0.330090
vn -0.417907 0.357864 0.835037
vn 0.335397 0.686839 -0.644796
vn 0.079691 0.927066 -0.366329
vn 0.420730 0.631030 0.651757
vn -0.025523 0.586842 0.809299
vn 0.823221 0.483011 0.298341
vn 0.614358 0.671354 -0.414545
vn 0.000000 -1.000000 0.000000
vn 0.000000 -1.000000 -0.000000
vn 0.471349 0.740305 -0.479353
vn -0.210522 -0.627904 -0.749277
vn -0.134194 -0.858151 -0.495550
vn -0.143607 -0.827142 -0.543335
vn -0.040610 -0.969948 -0.239900
vn 0.269167 -0.540588 0.797066
vn -0.695738 -0.303081 0.651222
vn 0.997761 -0.057784 0.033684
vn 0.139510 -0.048433 -0.989036
vn 0.068375 0.085263 0.994010
vn -0.981659 0.125518 0.143494
vn 0.855741 0.446760 0.260984
vn -0.266713 0.485331 -0.832657
vn 0.777972 -0.399053 0.485300
vn 0.975777 0.039664 0.215142
vn -0.051370 0.931199 0.360873
vn -0.625593 0.243308 0.741239
vn 0.991360 -0.116646 -0.059986
vn 0.691787 -0.397825 0.602633
vn -0.688935 0.411737 -0.596524
vn -0.987455 0.002327 0.157882
vn 0.740600 0.230248 -0.631267
vn 0.706580 -0.587934 0.393800
vn -0.519990 0.763390 -0.383205
vn -0.994246 0.027008 0.103658
s 1
g pSphere1
usemtl initialShadingGroup
f 1/1/1 2/2/2 12/13/3 11/12/4
f 2/2/2 3/3/5 13/14/6 12/13/3
f 3/3/5 4/4/7 14/15/8 13/14/6
f 4/4/7 5/5/9 15/16/10 14/15/8
f 5/5/9 6/6/11 16/17/12 15/16/10
f 6/6/11 7/7/13 17/18/14 16/17/12
f 7/7/13 8/8/15 18/19/16 17/18/14
f 8/8/15 9/9/17 19/20/18 18/19/16
f 9/9/17 10/10/19 20/21/20 19/20/18
f 10/10/19 1/11/1 11/22/4 20/21/20
f 11/12/4 12/13/3 22/24/21 21/23/22
f 12/13/3 13/14/6 23/25/23 22/24/21
f 13/14/6 14/15/8 24/26/24 23/25/23
f 14/15/8 15/16/10 25/27/25 24/26/24
f 15/16/10 16/17/12 26/28/26 25/27/25
f 16/17/12 17/18/14 27/29/27 26/28/26
f 17/18/14 18/19/16 28/30/28 27/29/27
f 18/19/16 19/20/18 29/31/29 28/30/28
f 19/20/18 20/21/20 30/32/30 29/31/29
f 20/21/20 11/22/4 21/33/22 30/32/30
f 21/23/22 22/24/21 32/35/31 31/34/32
f 22/24/21 23/25/23 33/36/33 32/35/31
f 23/25/23 24/26/24 34/37/34 33/36/33
f 24/26/24 25/27/25 35/38/35 34/37/34
f 25/27/25 26/28/26 36/39/36 35/38/35
f 26/28/26 27/29/27 37/40/37 36/39/36
f 27/29/27 28/30/28 38/41/38 37/40/37
f 28/30/28 29/31/29 39/42/39 38/41/38
f 29/31/29 30/32/30 40/43/40 39/42/39
f 30/32/30 21/33/22 31/44/32 40/43/40
f 31/34/32 32/35/31 42/46/41 41/45/42
f 32/35/31 33/36/33 43/47/43 42/46/41
f 33/36/33 34/37/34 44/48/44 43/47/43
f 34/37/34 35/38/35 45/49/45 44/48/44
f 35/38/35 36/39/36 46/50/46 45/49/45
f 36/39/36 37/40/37 47/51/47 46/50/46
f 37/40/37 38/41/38 48/52/48 47/51/47
f 38/41/38 39/42/39 49/53/49 48/52/48
f 39/42/39 40/43/40 50/54/50 49/53/49
f 40/43/40 31/44/32 41/55/42 50/54/50
f 41/45/42 42/46/41 52/57/51 51/56/52
f 42/46/41 43/47/43 53/58/53 52/57/51
f 43/47/43 44/48/44 54/59/54 53/58/53
f 44/48/44 45/49/45 55/60/55 54/59/54
f 45/49/45 46/50/46 56/61/56 55/60/55
f 46/50/46 47/51/47 57/62/57 56/61/56
f 47/51/47 48/52/48 58/63/58 57/62/57
f 48/52/48 49/53/49 59/64/59 58/63/58
f 49/53/49 50/54/50 60/65/60 59/64/59
f 50/54/50 41/55/42 51/66/52 60/65/60
f 51/56/52 52/57/51 62/68/61 61/67/62
f 52/57/51 53/58/53 63/69/63 62/68/61
f 53/58/53 54/59/54 64/70/64 63/69/63
f 54/59/54 55/60/55 65/71/65 64/70/64
f 55/60/55 56/61/56 66/72/66 65/71/65
f 56/61/56 57/62/57 67/73/67 66/72/66
f 57/62/57 58/63/58 68/74/68 67/73/67
f 58/63/58 59/64/59 69/75/69 68/74/68
f 59/64/59 60/65/60 70/76/70 69/75/69
f 60/65/60 51/66/52 61/77/62 70/76/70
f 61/67/62 62/68/61 72/79/71 71/78/72
f 62/68/61 63/69/63 73/80/73 72/79/71
f 63/69/63 64/70/64 74/81/74 73/80/73
f 64/70/64 65/71/65 75/82/75 74/81/74
f 65/71/65 66/72/66 76/83/76 75/82/75
f 66/72/66 67/73/67 77/84/77 76/83/76
f 67/73/67 68/74/68 78/85/78 77/84/77
f 68/74/68 69/75/69 79/86/79 78/85/78
f 69/75/69 70/76/70 80/87/80 79/86/79
f 70/76/70 61/77/62 71/88/72 80/87/80
f 71/78/72 72/79/71 82/90/81 81/89/82
f 72/79/71 73/80/73 83/91/83 82/90/81
f 73/80/73 74/81/74 84/92/84 83/91/83
f 74/81/74 75/82/75 85/93/85 84/92/84
f 75/82/75 76/83/76 86/94/86 85/93/85
f 105/132/87 106/133/88 107/134/89 108/135/90
f 77/84/77 78/85/78 88/96/91 87/95/92
f 78/85/78 79/86/79 89/97/93 88/96/91
f 79/86/79 80/87/80 90/98/94 89/97/93
f 80/87/80 71/88/72 81/99/82 90/98/94
f 2/2/2 1/1/1 91/100/95
f 3/3/5 2/2/2 91/101/96
f 4/4/7 3/3/5 91/102/96
f 5/5/9 4/4/7 91/103/96
f 6/6/11 5/5/9 91/104/96
f 7/7/13 6/6/11 91/105/96
f 8/8/15 7/7/13 91/106/96
f 9/9/17 8/8/15 91/107/96
f 10/10/19 9/9/17 91/108/96
f 1/11/1 10/10/19 91/109/96
f 81/89/82 82/90/81 92/110/97
f 82/90/81 83/91/83 92/111/97
f 83/91/83 84/92/84 92/112/97
f 84/92/84 85/93/85 92/113/97
f 85/93/85 86/94/86 92/114/97
f 86/94/86 87/95/92 92/115/97
f 87/95/92 88/96/91 92/116/97
f 88/96/91 89/97/93 92/117/97
f 89/97/93 90/98/94 92/118/97
f 90/98/94 81/99/82 92/119/97
f 76/83/76 77/84/77 94/121/98 93/120/99
f 77/84/77 87/95/92 95/122/100 94/121/98
f 87/95/92 86/94/86 96/123/101 95/122/100
f 86/94/86 76/83/76 93/120/99 96/123/101
f 93/120/99 94/121/98 98/125/102 97/124/103
f 94/121/98 95/122/100 99/126/104 98/125/102
f 95/122/100 96/123/101 100/127/105 99/126/104
f 96/123/101 93/120/99 97/124/103 100/127/105
f 97/124/103 98/125/102 102/129/106 101/128/107
f 98/125/102 99/126/104 103/130/108 102/129/106
f 99/126/104 100/127/105 104/131/109 103/130/108
f 100/127/105 97/124/103 101/128/107 104/131/109
f 101/128/107 102/129/106 106/133/88 105/132/87
f 117/144/110 118/145/111 119/146/112 120/147/113
f 103/130/108 104/131/109 108/135/90 107/134/89
f 104/131/109 101/128/107 105/132/87 108/135/90
f 102/129/106 103/130/108 110/137/114 109/136/115
f 103/130/108 107/134/89 111/138/116 110/137/114
f 107/134/89 106/133/88 112/139/117 111/138/116
f 106/133/88 102/129/106 109/136/115 112/139/117
f 109/136/115 110/137/114 114/141/118 113/140/119
f 110/137/114 111/138/116 115/142/120 114/141/118
f 111/138/116 112/139/117 116/143/121 115/142/120
f 112/139/117 109/136/115 113/140/119 116/143/121
f 113/140/119 114/141/118 118/145/111 117/144/110
f 114/141/118 115/142/120 119/146/112 118/145/111
f 115/142/120 116/143/121 120/147/113 119/146/112
f 116/143/121 113/140/119 117/144/110 120/147/113
