# This file uses centimeters as units for non-parametric coordinates.

mtllib trashbag2.mtl
g default
v 0.693104 0.000000 -0.503570
v 0.141501 0.000000 -0.397750
v -0.264742 0.000000 -0.814793
v -0.693104 0.000000 -0.503570
v -0.856724 0.000000 0.000000
v -0.693104 0.000000 0.503570
v -0.367863 0.000000 0.527564
v 0.161622 0.000000 0.814793
v 0.693104 0.000000 0.503570
v 0.856724 0.000000 0.000000
v 0.829892 0.096576 -0.542954
v 0.065463 0.096576 -0.688796
v -0.285448 0.096576 -0.878518
v -1.038968 0.096576 -0.542954
v -1.285758 0.039335 0.000000
v -0.883785 0.000000 0.542954
v -0.432833 0.080561 0.663437
v 0.360790 0.096576 0.967661
v 0.822654 0.096576 0.632097
v 1.020662 0.096576 0.020853
v 0.856063 0.417857 -0.807665
v 0.104920 0.412215 -0.967129
v -0.328193 0.458123 -0.925641
v -0.887406 0.462896 -0.581508
v -1.248021 0.277676 -0.093242
v -1.062283 0.192502 0.597719
v -0.314239 0.412215 0.998576
v 0.112968 0.552575 1.276585
v 0.645122 0.412215 1.000428
v 1.068172 0.412215 0.365953
v 0.847902 1.118432 -0.616037
v 0.323869 0.971386 -0.996768
v -0.330184 0.971386 -0.984796
v -0.731259 0.971386 -0.438464
v -1.384303 0.761641 -0.389842
v -1.205016 0.826574 0.753077
v -0.353257 0.855147 1.242312
v 0.208541 1.030409 1.282302
v 0.900607 0.689325 0.855089
v 1.146263 0.971386 0.365953
v 0.816381 1.297535 -0.705963
v 0.272935 1.347229 -0.930681
v -0.217721 1.277146 -1.073957
v -0.614385 1.420979 -0.768459
v -1.371944 1.600478 -0.132062
v -1.346743 1.664168 0.565869
v -0.283287 1.747072 0.976410
v 0.329893 1.510358 0.938213
v 0.776896 1.125403 0.826987
v 1.200790 1.453646 0.290986
v 0.672908 1.743228 -0.548769
v 0.360666 1.752156 -0.965149
v -0.205424 1.765931 -0.820612
v -0.463066 1.994109 -0.532129
v -1.143010 2.154052 -0.071173
v -1.012548 2.067324 0.653031
v -0.220275 2.114537 0.827192
v 0.373816 1.932495 0.940777
v 0.764791 1.698527 0.643902
v 0.829036 1.868719 -0.068254
v 0.610262 2.061526 -0.411217
v 0.287613 2.161140 -0.697625
v -0.248401 2.024915 -0.697625
v -0.469167 2.271732 -0.215528
v -0.633384 2.338661 -0.028481
v -0.547134 2.342420 0.431095
v -0.147222 2.304926 0.519226
v 0.287613 2.304333 0.667467
v 0.521387 2.164538 0.408681
v 0.773775 2.073058 -0.028481
v 0.297815 2.187853 -0.315419
v 0.140473 2.187289 -0.492756
v -0.080657 2.257412 -0.492756
v -0.309818 2.285511 -0.132450
v -0.413021 2.385384 0.064882
v -0.307658 2.339324 0.133154
v -0.126591 2.260597 0.342324
v 0.171171 2.277098 0.369278
v 0.470036 2.304553 0.258457
v 0.558363 2.174609 -0.028481
v 0.148104 2.217965 -0.128785
v -0.070817 2.262740 -0.265349
v -0.151834 2.241046 -0.237129
v -0.163700 2.290727 -0.052290
v -0.205068 2.317422 0.013296
v -0.041755 2.290008 0.031320
v 0.035829 2.258957 0.174878
v 0.147159 2.299418 0.208387
v 0.271688 2.229039 0.098521
v 0.319254 2.174657 -0.028481
v 0.000000 0.000000 0.000000
v 0.070196 2.246094 0.009515
v -0.175635 2.324812 0.190470
v -0.103541 2.268999 0.234080
v -0.087976 2.266511 0.204405
v -0.094719 2.289286 0.163783
v -0.191695 2.332122 0.210108
v -0.066797 2.275585 0.260732
v 0.000522 2.287512 0.183187
v -0.104920 2.364613 0.100276
v -0.217295 2.468978 0.235593
v -0.040200 2.419865 0.338778
v -0.028849 2.450801 0.207591
v -0.135340 2.488739 0.082865
v -0.174521 2.522030 0.235878
v -0.124673 2.523595 0.255780
v -0.092540 2.537989 0.180655
v -0.140607 2.543107 0.163400
v -0.024172 2.484382 0.244857
v 0.007272 2.555035 0.178053
v -0.045418 2.528666 0.201543
v -0.077134 2.527197 0.247050
v 0.037070 2.529439 0.331311
v 0.045828 2.778697 0.233586
v 0.004623 2.833089 0.317304
v -0.033919 2.642290 0.369893
v 0.075980 2.651970 0.440181
v 0.102317 2.763119 0.396403
v 0.033716 2.818425 0.387907
v 0.025974 2.749165 0.410994
vt 0.000000 0.100000
vt 0.100000 0.100000
vt 0.200000 0.100000
vt 0.300000 0.100000
vt 0.400000 0.100000
vt 0.500000 0.100000
vt 0.600000 0.100000
vt 0.700000 0.100000
vt 0.800000 0.100000
vt 0.900000 0.100000
vt 1.000000 0.100000
vt 0.000000 0.200000
vt 0.100000 0.200000
vt 0.200000 0.200000
vt 0.300000 0.200000
vt 0.400000 0.200000
vt 0.500000 0.200000
vt 0.600000 0.200000
vt 0.700000 0.200000
vt 0.800000 0.200000
vt 0.900000 0.200000
vt 1.000000 0.200000
vt 0.000000 0.300000
vt 0.100000 0.300000
vt 0.200000 0.300000
vt 0.300000 0.300000
vt 0.400000 0.300000
vt 0.500000 0.300000
vt 0.600000 0.300000
vt 0.700000 0.300000
vt 0.800000 0.300000
vt 0.900000 0.300000
vt 1.000000 0.300000
vt 0.000000 0.400000
vt 0.100000 0.400000
vt 0.200000 0.400000
vt 0.300000 0.400000
vt 0.400000 0.400000
vt 0.500000 0.400000
vt 0.600000 0.400000
vt 0.700000 0.400000
vt 0.800000 0.400000
vt 0.900000 0.400000
vt 1.000000 0.400000
vt 0.000000 0.500000
vt 0.100000 0.500000
vt 0.200000 0.500000
vt 0.300000 0.500000
vt 0.400000 0.500000
vt 0.500000 0.500000
vt 0.600000 0.500000
vt 0.700000 0.500000
vt 0.800000 0.500000
vt 0.900000 0.500000
vt 1.000000 0.500000
vt 0.000000 0.600000
vt 0.100000 0.600000
vt 0.200000 0.600000
vt 0.300000 0.600000
vt 0.400000 0.600000
vt 0.500000 0.600000
vt 0.600000 0.600000
vt 0.700000 0.600000
vt 0.800000 0.600000
vt 0.900000 0.600000
vt 1.000000 0.600000
vt 0.000000 0.700000
vt 0.100000 0.700000
vt 0.200000 0.700000
vt 0.300000 0.700000
vt 0.400000 0.700000
vt 0.500000 0.700000
vt 0.600000 0.700000
vt 0.700000 0.700000
vt 0.800000 0.700000
vt 0.900000 0.700000
vt 1.000000 0.700000
vt 0.000000 0.800000
vt 0.100000 0.800000
vt 0.200000 0.800000
vt 0.300000 0.800000
vt 0.400000 0.800000
vt 0.500000 0.800000
vt 0.600000 0.800000
vt 0.700000 0.800000
vt 0.800000 0.800000
vt 0.900000 0.800000
vt 1.000000 0.800000
vt 0.000000 0.900000
vt 0.100000 0.900000
vt 0.200000 0.900000
vt 0.300000 0.900000
vt 0.400000 0.900000
vt 0.500000 0.900000
vt 0.600000 0.900000
vt 0.700000 0.900000
vt 0.800000 0.900000
vt 0.900000 0.900000
vt 1.000000 0.900000
vt 0.050000 0.000000
vt 0.150000 0.000000
vt 0.250000 0.000000
vt 0.350000 0.000000
vt 0.450000 0.000000
vt 0.550000 0.000000
vt 0.650000 0.000000
vt 0.750000 0.000000
vt 0.850000 0.000000
vt 0.950000 0.000000
vt 0.050000 1.000000
vt 0.150000 1.000000
vt 0.250000 1.000000
vt 0.350000 1.000000
vt 0.450000 1.000000
vt 0.550000 1.000000
vt 0.650000 1.000000
vt 0.750000 1.000000
vt 0.850000 1.000000
vt 0.950000 1.000000
vt 0.500000 0.800000
vt 0.600000 0.800000
vt 0.600000 0.900000
vt 0.500000 0.900000
vt 0.500000 0.800000
vt 0.600000 0.800000
vt 0.600000 0.900000
vt 0.500000 0.900000
vt 0.500000 0.800000
vt 0.600000 0.800000
vt 0.600000 0.900000
vt 0.500000 0.900000
vt 0.500000 0.800000
vt 0.600000 0.800000
vt 0.600000 0.900000
vt 0.500000 0.900000
vt 0.600000 0.800000
vt 0.600000 0.900000
vt 0.600000 0.900000
vt 0.600000 0.800000
vt 0.600000 0.800000
vt 0.600000 0.900000
vt 0.600000 0.900000
vt 0.600000 0.800000
vt 0.600000 0.800000
vt 0.600000 0.900000
vt 0.600000 0.900000
vt 0.600000 0.800000
vn 0.112759 -0.961451 -0.250795
vn 0.031190 -0.981272 -0.190083
vn 0.176976 -0.669268 -0.721637
vn 0.680841 -0.519505 -0.516305
vn 0.011637 -0.957721 -0.287463
vn -0.203888 -0.398036 -0.894426
vn -0.115086 -0.980432 -0.159712
vn -0.620456 -0.474719 -0.624241
vn -0.068747 -0.996892 -0.038482
vn -0.720448 -0.693387 -0.012991
vn -0.019580 -0.996337 0.083242
vn -0.328073 -0.799449 0.503240
vn -0.057468 -0.982764 0.175707
vn -0.211144 -0.667841 0.713727
vn -0.036156 -0.966330 0.254755
vn 0.115268 -0.675579 0.728222
vn 0.165753 -0.978455 0.123091
vn 0.680653 -0.552529 0.481065
vn 0.218059 -0.975929 -0.003468
vn 0.938625 -0.338774 -0.064931
vn 0.166699 -0.257481 -0.951796
vn 0.742971 -0.171515 -0.646975
vn -0.361610 -0.031698 -0.931791
vn -0.567030 0.014689 -0.823566
vn -0.984645 -0.154443 -0.081375
vn -0.735959 -0.362274 0.571945
vn -0.323335 -0.477588 0.816924
vn 0.051163 -0.358778 0.932020
vn 0.574314 -0.261134 0.775869
vn 0.988534 -0.144090 0.045159
vn 0.272912 0.010617 -0.961980
vn 0.875486 -0.029102 -0.482366
vn -0.443889 -0.021127 -0.895833
vn -0.535714 0.003477 -0.844393
vn -0.922509 -0.123799 -0.365584
vn -0.754290 -0.050032 0.654632
vn -0.336681 0.050590 0.940259
vn 0.231584 0.223382 0.946821
vn 0.747455 -0.034862 0.663397
vn 0.999157 -0.029504 0.028565
vn 0.277027 0.122659 -0.953001
vn 0.794164 0.145356 -0.590064
vn -0.281646 0.102617 -0.954015
vn -0.543583 0.189797 -0.817615
vn -0.926783 0.158874 -0.340340
vn -0.824784 0.191052 0.532194
vn -0.263018 0.254203 0.930700
vn 0.278640 0.289937 0.915585
vn 0.655010 0.283379 0.700470
vn 0.945801 0.307171 0.105391
vn 0.308955 0.337828 -0.889055
vn 0.774149 0.363031 -0.518557
vn -0.275117 0.408218 -0.870442
vn -0.484472 0.451282 -0.749421
vn -0.667258 0.644120 -0.374000
vn -0.546383 0.585815 0.598571
vn -0.152985 0.492522 0.856749
vn 0.354402 0.407871 0.841451
vn 0.696065 0.434447 0.571620
vn 0.880326 0.463342 -0.101691
vn 0.266027 0.672795 -0.690345
vn 0.674006 0.612812 -0.412524
vn -0.302132 0.601575 -0.739475
vn -0.249978 0.798116 -0.548199
vn -0.328677 0.927121 -0.180050
vn -0.237222 0.915972 0.323606
vn -0.041939 0.890109 0.453815
vn 0.321296 0.782456 0.533415
vn 0.726702 0.611231 0.313529
vn 0.819789 0.571433 0.037563
vn 0.111873 0.956525 -0.269340
vn 0.244337 0.964984 -0.095424
vn -0.133239 0.901031 -0.412784
vn -0.086491 0.926471 -0.366295
vn 0.004468 0.997722 -0.067319
vn 0.119163 0.991579 0.050698
vn 0.100512 0.994257 -0.036761
vn 0.080838 0.995372 -0.051953
vn 0.369770 0.928893 -0.020684
vn 0.386432 0.911779 -0.139031
vn 0.136417 0.990002 -0.035878
vn 0.173651 0.984001 -0.039847
vn 0.187739 0.981650 -0.033440
vn 0.231958 0.949413 -0.211685
vn 0.225421 0.959797 -0.167260
vn 0.260316 0.963423 -0.063655
vn -0.643068 0.648043 0.408049
vn -0.173444 0.645477 0.743826
vn 0.467372 0.774140 -0.426932
vn -0.204923 0.869045 -0.450298
vn -0.034578 0.991443 -0.125880
vn -0.077845 0.996911 0.010453
vn 0.043928 0.947400 -0.317024
vn 0.072462 0.984995 -0.156637
vn 0.000000 -1.000000 0.000000
vn 0.000000 -1.000000 -0.000000
vn 0.208628 0.966183 -0.151540
vn 0.092559 0.932230 0.349829
vn 0.084531 0.993519 0.075988
vn 0.358521 0.932469 -0.044326
vn 0.257276 0.938002 -0.232298
vn 0.178995 -0.438093 0.880929
vn -0.859155 -0.363170 0.360499
vn 0.960423 -0.157186 -0.229955
vn 0.059347 -0.056101 -0.996660
vn 0.113531 -0.178575 0.977355
vn -0.949864 -0.092212 0.298755
vn 0.952055 0.055716 -0.300811
vn -0.198410 0.184772 -0.962545
vn 0.889763 -0.388041 0.240303
vn 0.997871 0.044427 -0.047742
vn -0.094708 0.883788 0.458201
vn -0.542080 0.149866 0.826855
vn 0.515191 0.004959 -0.857061
vn 0.882494 -0.335822 0.329284
vn -0.802041 0.354348 -0.480799
vn -0.862764 0.311718 0.398082
vn 0.484304 0.237755 -0.841975
vn 0.823432 -0.545534 0.156054
vn -0.558591 0.786268 -0.264120
vn -0.919305 -0.019985 0.393038
s 1
g pSphere1
usemtl initialShadingGroup
f 1/1/1 2/2/2 12/13/3 11/12/4
f 2/2/2 3/3/5 13/14/6 12/13/3
f 3/3/5 4/4/7 14/15/8 13/14/6
f 4/4/7 5/5/9 15/16/10 14/15/8
f 5/5/9 6/6/11 16/17/12 15/16/10
f 6/6/11 7/7/13 17/18/14 16/17/12
f 7/7/13 8/8/15 18/19/16 17/18/14
f 8/8/15 9/9/17 19/20/18 18/19/16
f 9/9/17 10/10/19 20/21/20 19/20/18
f 10/10/19 1/11/1 11/22/4 20/21/20
f 11/12/4 12/13/3 22/24/21 21/23/22
f 12/13/3 13/14/6 23/25/23 22/24/21
f 13/14/6 14/15/8 24/26/24 23/25/23
f 14/15/8 15/16/10 25/27/25 24/26/24
f 15/16/10 16/17/12 26/28/26 25/27/25
f 16/17/12 17/18/14 27/29/27 26/28/26
f 17/18/14 18/19/16 28/30/28 27/29/27
f 18/19/16 19/20/18 29/31/29 28/30/28
f 19/20/18 20/21/20 30/32/30 29/31/29
f 20/21/20 11/22/4 21/33/22 30/32/30
f 21/23/22 22/24/21 32/35/31 31/34/32
f 22/24/21 23/25/23 33/36/33 32/35/31
f 23/25/23 24/26/24 34/37/34 33/36/33
f 24/26/24 25/27/25 35/38/35 34/37/34
f 25/27/25 26/28/26 36/39/36 35/38/35
f 26/28/26 27/29/27 37/40/37 36/39/36
f 27/29/27 28/30/28 38/41/38 37/40/37
f 28/30/28 29/31/29 39/42/39 38/41/38
f 29/31/29 30/32/30 40/43/40 39/42/39
f 30/32/30 21/33/22 31/44/32 40/43/40
f 31/34/32 32/35/31 42/46/41 41/45/42
f 32/35/31 33/36/33 43/47/43 42/46/41
f 33/36/33 34/37/34 44/48/44 43/47/43
f 34/37/34 35/38/35 45/49/45 44/48/44
f 35/38/35 36/39/36 46/50/46 45/49/45
f 36/39/36 37/40/37 47/51/47 46/50/46
f 37/40/37 38/41/38 48/52/48 47/51/47
f 38/41/38 39/42/39 49/53/49 48/52/48
f 39/42/39 40/43/40 50/54/50 49/53/49
f 40/43/40 31/44/32 41/55/42 50/54/50
f 41/45/42 42/46/41 52/57/51 51/56/52
f 42/46/41 43/47/43 53/58/53 52/57/51
f 43/47/43 44/48/44 54/59/54 53/58/53
f 44/48/44 45/49/45 55/60/55 54/59/54
f 45/49/45 46/50/46 56/61/56 55/60/55
f 46/50/46 47/51/47 57/62/57 56/61/56
f 47/51/47 48/52/48 58/63/58 57/62/57
f 48/52/48 49/53/49 59/64/59 58/63/58
f 49/53/49 50/54/50 60/65/60 59/64/59
f 50/54/50 41/55/42 51/66/52 60/65/60
f 51/56/52 52/57/51 62/68/61 61/67/62
f 52/57/51 53/58/53 63/69/63 62/68/61
f 53/58/53 54/59/54 64/70/64 63/69/63
f 54/59/54 55/60/55 65/71/65 64/70/64
f 55/60/55 56/61/56 66/72/66 65/71/65
f 56/61/56 57/62/57 67/73/67 66/72/66
f 57/62/57 58/63/58 68/74/68 67/73/67
f 58/63/58 59/64/59 69/75/69 68/74/68
f 59/64/59 60/65/60 70/76/70 69/75/69
f 60/65/60 51/66/52 61/77/62 70/76/70
f 61/67/62 62/68/61 72/79/71 71/78/72
f 62/68/61 63/69/63 73/80/73 72/79/71
f 63/69/63 64/70/64 74/81/74 73/80/73
f 64/70/64 65/71/65 75/82/75 74/81/74
f 65/71/65 66/72/66 76/83/76 75/82/75
f 66/72/66 67/73/67 77/84/77 76/83/76
f 67/73/67 68/74/68 78/85/78 77/84/77
f 68/74/68 69/75/69 79/86/79 78/85/78
f 69/75/69 70/76/70 80/87/80 79/86/79
f 70/76/70 61/77/62 71/88/72 80/87/80
f 71/78/72 72/79/71 82/90/81 81/89/82
f 72/79/71 73/80/73 83/91/83 82/90/81
f 73/80/73 74/81/74 84/92/84 83/91/83
f 74/81/74 75/82/75 85/93/85 84/92/84
f 75/82/75 76/83/76 86/94/86 85/93/85
f 105/132/87 106/133/88 107/134/89 108/135/90
f 77/84/77 78/85/78 88/96/91 87/95/92
f 78/85/78 79/86/79 89/97/93 88/96/91
f 79/86/79 80/87/80 90/98/94 89/97/93
f 80/87/80 71/88/72 81/99/82 90/98/94
f 2/2/2 1/1/1 91/100/95
f 3/3/5 2/2/2 91/101/96
f 4/4/7 3/3/5 91/102/96
f 5/5/9 4/4/7 91/103/96
f 6/6/11 5/5/9 91/104/96
f 7/7/13 6/6/11 91/105/96
f 8/8/15 7/7/13 91/106/96
f 9/9/17 8/8/15 91/107/96
f 10/10/19 9/9/17 91/108/96
f 1/11/1 10/10/19 91/109/96
f 81/89/82 82/90/81 92/110/97
f 82/90/81 83/91/83 92/111/97
f 83/91/83 84/92/84 92/112/97
f 84/92/84 85/93/85 92/113/97
f 85/93/85 86/94/86 92/114/97
f 86/94/86 87/95/92 92/115/97
f 87/95/92 88/96/91 92/116/97
f 88/96/91 89/97/93 92/117/97
f 89/97/93 90/98/94 92/118/97
f 90/98/94 81/99/82 92/119/97
f 76/83/76 77/84/77 94/121/98 93/120/99
f 77/84/77 87/95/92 95/122/100 94/121/98
f 87/95/92 86/94/86 96/123/101 95/122/100
f 86/94/86 76/83/76 93/120/99 96/123/101
f 93/120/99 94/121/98 98/125/102 97/124/103
f 94/121/98 95/122/100 99/126/104 98/125/102
f 95/122/100 96/123/101 100/127/105 99/126/104
f 96/123/101 93/120/99 97/124/103 100/127/105
f 97/124/103 98/125/102 102/129/106 101/128/107
f 98/125/102 99/126/104 103/130/108 102/129/106
f 99/126/104 100/127/105 104/131/109 103/130/108
f 100/127/105 97/124/103 101/128/107 104/131/109
f 101/128/107 102/129/106 106/133/88 105/132/87
f 117/144/110 118/145/111 119/146/112 120/147/113
f 103/130/108 104/131/109 108/135/90 107/134/89
f 104/131/109 101/128/107 105/132/87 108/135/90
f 102/129/106 103/130/108 110/137/114 109/136/115
f 103/130/108 107/134/89 111/138/116 110/137/114
f 107/134/89 106/133/88 112/139/117 111/138/116
f 106/133/88 102/129/106 109/136/115 112/139/117
f 109/136/115 110/137/114 114/141/118 113/140/119
f 110/137/114 111/138/116 115/142/120 114/141/118
f 111/138/116 112/139/117 116/143/121 115/142/120
f 112/139/117 109/136/115 113/140/119 116/143/121
f 113/140/119 114/141/118 118/145/111 117/144/110
f 114/141/118 115/142/120 119/146/112 118/145/111
f 115/142/120 116/143/121 120/147/113 119/146/112
f 116/143/121 113/140/119 117/144/110 120/147/113
